<svg xmlns="http://www.w3.org/2000/svg" viewBox="0 0 1600 1100" width="1600" height="1100" role="img">
  <defs>
    <linearGradient id="sky" x1="0" y1="0" x2="0" y2="1">
      <stop offset="0%" stop-color="#d9e2e6"/>
      <stop offset="100%" stop-color="#f4efe6"/>
    </linearGradient>
    <linearGradient id="glassGrad" x1="0" y1="0" x2="1" y2="1">
      <stop offset="0%" stop-color="#3d4c55"/>
      <stop offset="45%" stop-color="#28333a"/>
      <stop offset="100%" stop-color="#1f292f"/>
    </linearGradient>
    <linearGradient id="groundGrad" x1="0" y1="0" x2="0" y2="1">
      <stop offset="0%" stop-color="#a8ae87"/>
      <stop offset="100%" stop-color="#8f9670"/>
    </linearGradient>
    <filter id="grain-482" x="0" y="0" width="100%" height="100%">
      <feTurbulence type="fractalNoise" baseFrequency="0.9" numOctaves="3" seed="482" result="n"/>
      <feColorMatrix in="n" type="saturate" values="0"/>
      <feComponentTransfer><feFuncA type="linear" slope="0.055"/></feComponentTransfer>
    </filter>
    <filter id="soft" x="-20%" y="-20%" width="140%" height="140%">
      <feGaussianBlur stdDeviation="18"/>
    </filter>
  </defs>
<rect width="1600" height="1100" fill="url(#sky)"/>
  <g>
    <pattern id="brick-nbl" width="34" height="16" patternUnits="userSpaceOnUse">
      <rect width="34" height="16" fill="#a9a49c"/>
      <rect width="34" height="1.4" y="14.6" fill="#c8c3ba" opacity="0.75"/>
      <rect width="1.4" height="8" x="0" y="0" fill="#c8c3ba" opacity="0.6"/>
      <rect width="1.4" height="8" x="17" y="7" fill="#c8c3ba" opacity="0.6"/>
      <rect width="34" height="1.4" y="6.6" fill="#c8c3ba" opacity="0.45"/>
    </pattern>
    <rect x="0" y="126.5" width="240" height="731.5" fill="url(#brick-nbl)"/>
    <rect x="0" y="126.5" width="240" height="731.5" fill="#918c84" opacity="0.18"/>
  </g><rect x="0" y="126.5" width="240" height="731.5" fill="#7d848a" opacity="0.3"/><rect x="-8" y="112.5" width="256" height="16" fill="#8a8f93"/><rect x="0" y="511.5" width="240" height="99" fill="#39434a"/><rect x="14" y="643.5" width="212" height="154" fill="url(#glassGrad)" opacity="0.7"/><rect x="14" y="797.5" width="212" height="60.5" fill="#4c565c" opacity="0.8"/>
  <g>
    <pattern id="brick-nbr" width="34" height="16" patternUnits="userSpaceOnUse">
      <rect width="34" height="16" fill="#a9a49c"/>
      <rect width="34" height="1.4" y="14.6" fill="#c8c3ba" opacity="0.75"/>
      <rect width="1.4" height="8" x="0" y="0" fill="#c8c3ba" opacity="0.6"/>
      <rect width="1.4" height="8" x="17" y="7" fill="#c8c3ba" opacity="0.6"/>
      <rect width="34" height="1.4" y="6.6" fill="#c8c3ba" opacity="0.45"/>
    </pattern>
    <rect x="1360" y="126.5" width="240" height="731.5" fill="url(#brick-nbr)"/>
    <rect x="1360" y="126.5" width="240" height="731.5" fill="#918c84" opacity="0.18"/>
  </g><rect x="1360" y="126.5" width="240" height="731.5" fill="#7d848a" opacity="0.3"/><rect x="1352" y="112.5" width="256" height="16" fill="#8a8f93"/><rect x="1360" y="511.5" width="240" height="99" fill="#39434a"/><rect x="1374" y="643.5" width="212" height="154" fill="url(#glassGrad)" opacity="0.7"/><rect x="1374" y="797.5" width="212" height="60.5" fill="#4c565c" opacity="0.8"/>
  <g>
    <pattern id="brick-unit" width="34" height="16" patternUnits="userSpaceOnUse">
      <rect width="34" height="16" fill="#a9a49c"/>
      <rect width="34" height="1.4" y="14.6" fill="#c8c3ba" opacity="0.75"/>
      <rect width="1.4" height="8" x="0" y="0" fill="#c8c3ba" opacity="0.6"/>
      <rect width="1.4" height="8" x="17" y="7" fill="#c8c3ba" opacity="0.6"/>
      <rect width="34" height="1.4" y="6.6" fill="#c8c3ba" opacity="0.45"/>
    </pattern>
    <rect x="240" y="106" width="1120" height="378" fill="url(#brick-unit)"/>
    <rect x="240" y="106" width="1120" height="378" fill="#918c84" opacity="0.18"/>
  </g><rect x="224" y="88" width="1152" height="18" fill="#918c84"/><rect x="224" y="106" width="1152" height="6" fill="#12161a" opacity="0.18"/>
  <g>
    <rect x="324.6" y="156.5" width="189.20000000000002" height="10" fill="#ded6c6"/>
    <rect x="324.6" y="162.5" width="189.20000000000002" height="217" fill="#faf8f4" opacity="0.85"/>
    <rect x="329.6" y="166.5" width="179.20000000000002" height="209" fill="url(#glassGrad)"/>
    <rect x="329.6" y="262.64" width="179.20000000000002" height="6" fill="#faf8f4" opacity="0.92"/>
           <rect x="417.20000000000005" y="166.5" width="4" height="209" fill="#faf8f4" opacity="0.5"/>
           <rect x="329.6" y="208.3" width="179.20000000000002" height="3" fill="#faf8f4" opacity="0.35"/>
           <rect x="329.6" y="316.98" width="179.20000000000002" height="3" fill="#faf8f4" opacity="0.35"/>
    <rect x="329.6" y="166.5" width="179.20000000000002" height="209" fill="none" stroke="#1b2227" stroke-width="4"/>
    <rect x="318.6" y="375.5" width="201.20000000000002" height="9" fill="#d8d0be"/>
    <rect x="318.6" y="384.5" width="201.20000000000002" height="4" fill="#b9b0a0"/>
  </g>
  <g>
    <rect x="705.4" y="156.5" width="189.20000000000002" height="10" fill="#ded6c6"/>
    <rect x="705.4" y="162.5" width="189.20000000000002" height="217" fill="#faf8f4" opacity="0.85"/>
    <rect x="710.4" y="166.5" width="179.20000000000002" height="209" fill="url(#glassGrad)"/>
    <rect x="710.4" y="262.64" width="179.20000000000002" height="6" fill="#faf8f4" opacity="0.92"/>
           <rect x="798" y="166.5" width="4" height="209" fill="#faf8f4" opacity="0.5"/>
           <rect x="710.4" y="208.3" width="179.20000000000002" height="3" fill="#faf8f4" opacity="0.35"/>
           <rect x="710.4" y="316.98" width="179.20000000000002" height="3" fill="#faf8f4" opacity="0.35"/>
    <rect x="710.4" y="166.5" width="179.20000000000002" height="209" fill="none" stroke="#1b2227" stroke-width="4"/>
    <rect x="699.4" y="375.5" width="201.20000000000002" height="9" fill="#d8d0be"/>
    <rect x="699.4" y="384.5" width="201.20000000000002" height="4" fill="#b9b0a0"/>
  </g>
  <g>
    <rect x="1086.2" y="156.5" width="189.20000000000002" height="10" fill="#ded6c6"/>
    <rect x="1086.2" y="162.5" width="189.20000000000002" height="217" fill="#faf8f4" opacity="0.85"/>
    <rect x="1091.2" y="166.5" width="179.20000000000002" height="209" fill="url(#glassGrad)"/>
    <rect x="1091.2" y="262.64" width="179.20000000000002" height="6" fill="#faf8f4" opacity="0.92"/>
           <rect x="1178.8" y="166.5" width="4" height="209" fill="#faf8f4" opacity="0.5"/>
           <rect x="1091.2" y="208.3" width="179.20000000000002" height="3" fill="#faf8f4" opacity="0.35"/>
           <rect x="1091.2" y="316.98" width="179.20000000000002" height="3" fill="#faf8f4" opacity="0.35"/>
    <rect x="1091.2" y="166.5" width="179.20000000000002" height="209" fill="none" stroke="#1b2227" stroke-width="4"/>
    <rect x="1080.2" y="375.5" width="201.20000000000002" height="9" fill="#d8d0be"/>
    <rect x="1080.2" y="384.5" width="201.20000000000002" height="4" fill="#b9b0a0"/>
  </g><rect x="228" y="484" width="1144" height="110" fill="#2f383d"/><rect x="228" y="484" width="1144" height="5" fill="#59636a"/><rect x="318.4" y="514.8" width="425.6" height="44" fill="#465158"/><rect x="228" y="594" width="1144" height="7" fill="#12161a" opacity="0.35"/><rect x="228" y="602.5" width="34" height="255.5" fill="#d8d0be"/><rect x="228" y="602.5" width="7" height="255.5" fill="#c0b7a5"/><rect x="1338" y="602.5" width="34" height="255.5" fill="#d8d0be"/><rect x="1338" y="602.5" width="7" height="255.5" fill="#c0b7a5"/>
  <g>
    <rect x="270" y="610.5" width="643.2" height="187" fill="url(#glassGrad)"/>
    <path d="M270 797.5 L623.76 610.5 L771.696 610.5 L372.91200000000003 797.5 Z"
          fill="#ffffff" opacity="0.07"/>
    <rect x="481.4" y="610.5" width="6" height="187" fill="#1b2227"/><rect x="695.8" y="610.5" width="6" height="187" fill="#1b2227"/>
    <rect x="270" y="610.5" width="643.2" height="187" fill="none" stroke="#1b2227" stroke-width="7"/>
  </g>
  <g>
    <rect x="1121.4" y="610.5" width="208.5999999999999" height="187" fill="url(#glassGrad)"/>
    <path d="M1121.4 797.5 L1236.13 610.5 L1284.108 610.5 L1154.776 797.5 Z"
          fill="#ffffff" opacity="0.07"/>
    <rect x="1222.7" y="610.5" width="6" height="187" fill="#1b2227"/>
    <rect x="1121.4" y="610.5" width="208.5999999999999" height="187" fill="none" stroke="#1b2227" stroke-width="7"/>
  </g><rect x="270" y="797.5" width="643.2" height="60.5" fill="#3f4a44"/><rect x="1121.4" y="797.5" width="208.5999999999999" height="60.5" fill="#3f4a44"/><rect x="270" y="791.5" width="643.2" height="8" fill="#cfcabd"/><rect x="1121.4" y="791.5" width="208.5999999999999" height="8" fill="#cfcabd"/><rect x="913.2" y="610.5" width="208.20000000000002" height="247.5" fill="#12161a" opacity="0.55"/><rect x="927.2" y="632.5" width="180.20000000000002" height="225.5" fill="url(#glassGrad)"/><rect x="927.2" y="632.5" width="180.20000000000002" height="225.5" fill="none" stroke="#1b2227" stroke-width="6"/><rect x="1056.944" y="753.5" width="7" height="132" fill="#cfcabd"/><rect x="909.2" y="848" width="216.20000000000002" height="10" fill="#cdc5b4"/><rect x="360" y="601" width="32" height="9" fill="#5c6367"/><path d="M360 610 L324 797.5 L428 797.5 L392 610 Z" fill="#fff" opacity="0.06"/><rect x="572" y="601" width="32" height="9" fill="#5c6367"/><path d="M572 610 L536 797.5 L640 797.5 L604 610 Z" fill="#fff" opacity="0.06"/><rect x="784" y="601" width="32" height="9" fill="#5c6367"/><path d="M784 610 L748 797.5 L852 797.5 L816 610 Z" fill="#fff" opacity="0.06"/><rect x="996" y="601" width="32" height="9" fill="#5c6367"/><path d="M996 610 L960 797.5 L1064 797.5 L1028 610 Z" fill="#fff" opacity="0.06"/><rect x="1208" y="601" width="32" height="9" fill="#5c6367"/><path d="M1208 610 L1172 797.5 L1276 797.5 L1240 610 Z" fill="#fff" opacity="0.06"/><rect x="0" y="858" width="1600" height="242" fill="#e4ded1"/><rect x="0" y="858" width="1600" height="22" fill="#12161a" opacity="0.12"/><path d="M0 858 H1600" stroke="#cec5b8" stroke-width="3"/><path d="M0 858 V911.1666666666666" stroke="#cec5b8" stroke-width="3"/><path d="M177.77777777777777 858 V911.1666666666666" stroke="#cec5b8" stroke-width="3"/><path d="M355.55555555555554 858 V911.1666666666666" stroke="#cec5b8" stroke-width="3"/><path d="M533.3333333333334 858 V911.1666666666666" stroke="#cec5b8" stroke-width="3"/><path d="M711.1111111111111 858 V911.1666666666666" stroke="#cec5b8" stroke-width="3"/><path d="M888.8888888888889 858 V911.1666666666666" stroke="#cec5b8" stroke-width="3"/><path d="M1066.6666666666667 858 V911.1666666666666" stroke="#cec5b8" stroke-width="3"/><path d="M1244.4444444444443 858 V911.1666666666666" stroke="#cec5b8" stroke-width="3"/><path d="M1422.2222222222222 858 V911.1666666666666" stroke="#cec5b8" stroke-width="3"/><path d="M1600 858 V911.1666666666666" stroke="#cec5b8" stroke-width="3"/><path d="M0 911.1666666666666 H1600" stroke="#cec5b8" stroke-width="3"/><path d="M88.88888888888889 911.1666666666666 V964.3333333333333" stroke="#cec5b8" stroke-width="3"/><path d="M266.6666666666667 911.1666666666666 V964.3333333333333" stroke="#cec5b8" stroke-width="3"/><path d="M444.44444444444446 911.1666666666666 V964.3333333333333" stroke="#cec5b8" stroke-width="3"/><path d="M622.2222222222222 911.1666666666666 V964.3333333333333" stroke="#cec5b8" stroke-width="3"/><path d="M800 911.1666666666666 V964.3333333333333" stroke="#cec5b8" stroke-width="3"/><path d="M977.7777777777778 911.1666666666666 V964.3333333333333" stroke="#cec5b8" stroke-width="3"/><path d="M1155.5555555555557 911.1666666666666 V964.3333333333333" stroke="#cec5b8" stroke-width="3"/><path d="M1333.3333333333333 911.1666666666666 V964.3333333333333" stroke="#cec5b8" stroke-width="3"/><path d="M1511.111111111111 911.1666666666666 V964.3333333333333" stroke="#cec5b8" stroke-width="3"/><path d="M1688.888888888889 911.1666666666666 V964.3333333333333" stroke="#cec5b8" stroke-width="3"/><path d="M0 964.3333333333334 H1600" stroke="#cec5b8" stroke-width="3"/><path d="M0 964.3333333333334 V1017.5" stroke="#cec5b8" stroke-width="3"/><path d="M177.77777777777777 964.3333333333334 V1017.5" stroke="#cec5b8" stroke-width="3"/><path d="M355.55555555555554 964.3333333333334 V1017.5" stroke="#cec5b8" stroke-width="3"/><path d="M533.3333333333334 964.3333333333334 V1017.5" stroke="#cec5b8" stroke-width="3"/><path d="M711.1111111111111 964.3333333333334 V1017.5" stroke="#cec5b8" stroke-width="3"/><path d="M888.8888888888889 964.3333333333334 V1017.5" stroke="#cec5b8" stroke-width="3"/><path d="M1066.6666666666667 964.3333333333334 V1017.5" stroke="#cec5b8" stroke-width="3"/><path d="M1244.4444444444443 964.3333333333334 V1017.5" stroke="#cec5b8" stroke-width="3"/><path d="M1422.2222222222222 964.3333333333334 V1017.5" stroke="#cec5b8" stroke-width="3"/><path d="M1600 964.3333333333334 V1017.5" stroke="#cec5b8" stroke-width="3"/><rect x="0" y="1017.5" width="1600" height="14" fill="#b9b0a0"/><rect x="0" y="1031.5" width="1600" height="68.5" fill="#8d8983"/>
<rect width="1600" height="1100" filter="url(#grain-482)" opacity="0.5"/>
</svg>